<?xml version="1.0" encoding="UTF-8" standalone="no"?>
<!DOCTYPE svg PUBLIC "-//W3C//DTD SVG 1.1//EN" "http://www.w3.org/Graphics/SVG/1.1/DTD/svg11.dtd">
<svg version="1.1" xmlns="http://www.w3.org/2000/svg" xmlns:xlink="http://www.w3.org/1999/xlink" preserveAspectRatio="xMidYMid meet" viewBox="0 0 198 202" width="198" height="202"><defs><path d="M107.84 8.12L111.59 8.5L115.29 9.03L118.95 9.7L122.55 10.52L126.1 11.47L129.59 12.56L133.02 13.78L136.39 15.13L139.7 16.61L142.93 18.21L146.09 19.93L149.18 21.77L152.19 23.72L155.12 25.78L157.96 27.95L160.72 30.23L163.38 32.61L165.96 35.08L168.43 37.66L170.81 40.32L173.09 43.08L175.26 45.92L177.32 48.85L179.27 51.86L181.11 54.95L182.83 58.11L184.43 61.35L185.91 64.65L187.26 68.02L188.48 71.45L189.57 74.94L190.52 78.49L191.33 82.09L192.01 85.75L192.54 89.45L192.92 93.2L193.15 96.98L193.23 100.81L193.15 104.64L192.92 108.43L192.54 112.17L192.01 115.87L191.33 119.53L190.52 123.13L189.57 126.68L188.48 130.17L187.26 133.6L185.91 136.97L184.43 140.28L182.83 143.51L181.11 146.67L179.27 149.76L177.32 152.77L175.26 155.7L173.09 158.54L170.81 161.3L168.43 163.96L165.96 166.54L163.38 169.02L160.72 171.39L157.96 173.67L155.12 175.84L152.19 177.9L149.18 179.86L146.09 181.69L142.93 183.41L139.7 185.01L136.39 186.49L133.02 187.84L129.59 189.06L126.1 190.15L122.55 191.1L118.95 191.92L115.29 192.59L111.59 193.12L107.84 193.5L104.05 193.73L100.23 193.81L96.4 193.73L92.61 193.5L88.86 193.12L85.16 192.59L81.51 191.92L77.9 191.1L74.36 190.15L70.86 189.06L67.43 187.84L64.06 186.49L60.76 185.01L57.52 183.41L54.36 181.69L51.27 179.86L48.27 177.9L45.34 175.84L42.49 173.67L39.74 171.39L37.07 169.02L34.5 166.54L32.02 163.96L29.64 161.3L27.36 158.54L25.19 155.7L23.13 152.77L21.18 149.76L19.34 146.67L17.62 143.51L16.02 140.28L14.55 136.97L13.2 133.6L11.98 130.17L10.89 126.68L9.93 123.13L9.12 119.53L8.45 115.87L7.92 112.17L7.54 108.43L7.3 104.64L7.23 100.81L7.3 96.98L7.54 93.2L7.92 89.45L8.45 85.75L9.12 82.09L9.93 78.49L10.89 74.94L11.98 71.45L13.2 68.02L14.55 64.65L16.02 61.35L17.62 58.11L19.34 54.95L21.18 51.86L23.13 48.85L25.19 45.92L27.36 43.08L29.64 40.32L32.02 37.66L34.5 35.08L37.07 32.61L39.74 30.23L42.49 27.95L45.34 25.78L48.27 23.72L51.27 21.77L54.36 19.93L57.52 18.21L60.76 16.61L64.06 15.13L67.43 13.78L70.86 12.56L74.36 11.47L77.9 10.52L81.51 9.7L85.16 9.03L88.86 8.5L92.61 8.12L96.4 7.89L100.23 7.81L104.05 7.89L107.84 8.12ZM93.29 16.42L89.88 16.77L86.51 17.25L83.18 17.86L79.9 18.6L76.67 19.47L73.49 20.46L70.37 21.57L67.3 22.8L64.29 24.15L61.35 25.6L58.47 27.17L55.66 28.84L52.92 30.62L50.25 32.5L47.66 34.47L45.15 36.55L42.73 38.71L40.38 40.97L38.13 43.31L35.96 45.74L33.89 48.25L31.91 50.84L30.03 53.5L28.26 56.24L26.59 59.05L25.02 61.93L23.56 64.88L22.22 67.88L20.99 70.95L19.88 74.08L18.89 77.26L18.02 80.49L17.28 83.77L16.66 87.09L16.18 90.47L15.84 93.88L15.63 97.33L15.55 100.81L15.63 104.3L15.84 107.75L16.18 111.16L16.66 114.53L17.28 117.85L18.02 121.13L18.89 124.37L19.88 127.55L20.99 130.67L22.22 133.74L23.56 136.75L25.02 139.69L26.59 142.57L28.26 145.38L30.03 148.12L31.91 150.79L33.89 153.37L35.96 155.88L38.13 158.31L40.38 160.66L42.73 162.91L45.15 165.08L47.66 167.15L50.25 169.12L52.92 171L55.66 172.78L58.47 174.45L61.35 176.02L64.29 177.47L67.3 178.82L70.37 180.05L73.49 181.16L76.67 182.15L79.9 183.02L83.18 183.76L86.51 184.37L89.88 184.85L93.29 185.2L96.74 185.41L100.23 185.48L103.71 185.41L107.16 185.2L110.57 184.85L113.94 184.37L117.27 183.76L120.55 183.02L123.78 182.15L126.96 181.16L130.09 180.05L133.15 178.82L136.16 177.47L139.11 176.02L141.98 174.45L144.8 172.78L147.54 171L150.2 169.12L152.79 167.15L155.3 165.08L157.73 162.91L160.07 160.66L162.33 158.31L164.49 155.88L166.56 153.37L168.54 150.79L170.42 148.12L172.19 145.38L173.87 142.57L175.43 139.69L176.89 136.75L178.23 133.74L179.46 130.67L180.57 127.55L181.57 124.37L182.43 121.13L183.17 117.85L183.79 114.53L184.27 111.16L184.62 107.75L184.83 104.3L184.9 100.81L184.83 97.33L184.62 93.88L184.27 90.46L183.79 87.09L183.18 83.77L182.43 80.49L181.57 77.26L180.57 74.08L179.46 70.95L178.23 67.88L176.89 64.88L175.43 61.93L173.87 59.05L172.2 56.24L170.42 53.5L168.54 50.84L166.56 48.25L164.49 45.74L162.33 43.31L160.07 40.97L157.73 38.71L155.3 36.55L152.79 34.47L150.2 32.5L147.54 30.62L144.8 28.84L141.98 27.17L139.11 25.6L136.16 24.15L133.15 22.8L130.09 21.57L126.96 20.46L123.78 19.47L120.55 18.6L117.27 17.86L113.94 17.25L110.57 16.77L107.16 16.42L103.71 16.21L100.23 16.14L96.74 16.21L93.29 16.42Z" id="b1NoFbAJr5"></path><path d="M106.57 23.57L109.7 23.89L112.78 24.33L115.83 24.89L118.83 25.57L121.79 26.36L124.7 27.27L127.56 28.29L130.36 29.41L133.12 30.64L135.81 31.98L138.45 33.41L141.02 34.94L143.53 36.57L145.97 38.29L148.34 40.09L150.64 41.99L152.86 43.97L155 46.04L157.07 48.18L159.05 50.41L160.95 52.7L162.75 55.07L164.47 57.51L166.1 60.02L167.63 62.59L169.06 65.23L170.4 67.92L171.63 70.68L172.75 73.48L173.77 76.34L174.68 79.25L175.47 82.21L176.15 85.21L176.71 88.26L177.15 91.34L177.47 94.47L177.66 97.62L177.73 100.81L177.66 104L177.47 107.16L177.15 110.28L176.71 113.36L176.15 116.41L175.47 119.41L174.68 122.37L173.77 125.28L172.75 128.14L171.63 130.95L170.4 133.7L169.06 136.39L167.63 139.03L166.1 141.6L164.47 144.11L162.75 146.55L160.95 148.92L159.05 151.22L157.07 153.44L155 155.58L152.86 157.65L150.64 159.63L148.34 161.53L145.97 163.34L143.53 165.06L141.02 166.68L138.45 168.21L135.81 169.65L133.12 170.98L130.37 172.21L127.56 173.34L124.7 174.35L121.79 175.26L118.83 176.05L115.83 176.73L112.78 177.29L109.7 177.74L106.57 178.05L103.42 178.25L100.23 178.31L97.04 178.25L93.88 178.05L90.76 177.74L87.67 177.29L84.63 176.73L81.62 176.05L78.67 175.26L75.76 174.35L72.9 173.34L70.09 172.21L67.34 170.98L64.64 169.65L62.01 168.21L59.43 166.68L56.93 165.06L54.49 163.34L52.12 161.53L49.82 159.63L47.6 157.65L45.45 155.58L43.39 153.44L41.41 151.22L39.51 148.92L37.7 146.55L35.98 144.11L34.35 141.6L32.82 139.03L31.39 136.39L30.06 133.7L28.83 130.95L27.7 128.14L26.68 125.28L25.78 122.37L24.98 119.41L24.3 116.41L23.74 113.36L23.3 110.28L22.98 107.16L22.79 104L22.73 100.81L22.79 97.62L22.98 94.47L23.3 91.34L23.74 88.26L24.3 85.21L24.98 82.21L25.78 79.25L26.68 76.34L27.7 73.48L28.83 70.68L30.06 67.92L31.39 65.23L32.82 62.59L34.35 60.02L35.98 57.51L37.7 55.07L39.51 52.7L41.41 50.41L43.39 48.18L45.45 46.04L47.6 43.97L49.82 41.99L52.12 40.09L54.49 38.29L56.93 36.57L59.43 34.94L62.01 33.41L64.64 31.98L67.34 30.64L70.09 29.41L72.9 28.29L75.76 27.27L78.67 26.36L81.62 25.57L84.63 24.89L87.67 24.33L90.76 23.89L93.88 23.57L97.04 23.38L100.23 23.31L103.42 23.38L106.57 23.57ZM94.45 30.49L91.61 30.77L88.8 31.18L86.02 31.69L83.29 32.31L80.6 33.03L77.95 33.85L75.34 34.78L72.79 35.8L70.28 36.92L67.83 38.14L65.43 39.44L63.09 40.84L60.8 42.32L58.58 43.88L56.42 45.53L54.33 47.26L52.31 49.06L50.36 50.94L48.48 52.89L46.67 54.92L44.95 57.01L43.3 59.17L41.73 61.39L40.25 63.67L38.86 66.01L37.55 68.41L36.34 70.87L35.22 73.37L34.2 75.93L33.27 78.53L32.44 81.18L31.72 83.87L31.1 86.61L30.59 89.38L30.19 92.19L29.9 95.03L29.73 97.91L29.67 100.81L29.73 103.72L29.9 106.59L30.19 109.43L30.59 112.24L31.1 115.01L31.72 117.75L32.44 120.44L33.27 123.09L34.2 125.69L35.22 128.25L36.34 130.76L37.55 133.21L38.86 135.61L40.25 137.95L41.73 140.23L43.3 142.46L44.95 144.61L46.67 146.71L48.48 148.73L50.36 150.68L52.31 152.56L54.33 154.37L56.42 156.09L58.58 157.74L60.8 159.3L63.09 160.78L65.43 162.18L67.83 163.48L70.28 164.7L72.79 165.82L75.34 166.84L77.95 167.77L80.6 168.59L83.29 169.32L86.02 169.93L88.8 170.45L91.61 170.85L94.45 171.14L97.32 171.31L100.23 171.37L103.13 171.31L106.01 171.14L108.85 170.85L111.66 170.45L114.43 169.93L117.16 169.32L119.86 168.59L122.51 167.77L125.11 166.84L127.67 165.82L130.17 164.7L132.63 163.48L135.03 162.18L137.37 160.78L139.65 159.3L141.87 157.74L144.03 156.09L146.12 154.37L148.14 152.56L150.1 150.68L151.98 148.73L153.78 146.71L155.51 144.61L157.15 142.46L158.72 140.23L160.2 137.95L161.59 135.61L162.9 133.21L164.11 130.76L165.23 128.25L166.26 125.69L167.18 123.09L168.01 120.44L168.73 117.75L169.35 115.01L169.86 112.24L170.26 109.43L170.55 106.59L170.73 103.72L170.79 100.81L170.73 97.91L170.55 95.03L170.26 92.19L169.86 89.38L169.35 86.61L168.73 83.87L168.01 81.18L167.18 78.53L166.26 75.93L165.23 73.37L164.11 70.87L162.9 68.41L161.59 66.01L160.2 63.67L158.72 61.39L157.15 59.17L155.51 57.01L153.78 54.92L151.98 52.89L150.1 50.94L148.14 49.06L146.12 47.26L144.03 45.53L141.87 43.88L139.65 42.32L137.37 40.84L135.03 39.44L132.63 38.14L130.17 36.92L127.67 35.8L125.11 34.78L122.51 33.85L119.86 33.03L117.16 32.31L114.43 31.69L111.66 31.18L108.85 30.77L106.01 30.49L103.13 30.31L100.23 30.25L97.32 30.31L94.45 30.49Z" id="aHrHsZzii"></path><path d="M104.55 39.52L107.04 39.78L109.51 40.13L111.95 40.58L114.35 41.12L116.72 41.76L119.04 42.48L121.33 43.3L123.58 44.2L125.78 45.18L127.94 46.25L130.04 47.4L132.1 48.62L134.11 49.92L136.06 51.3L137.96 52.74L139.79 54.26L141.57 55.85L143.29 57.5L144.94 59.21L146.52 60.99L148.04 62.83L149.49 64.73L150.86 66.68L152.17 68.68L153.39 70.74L154.54 72.85L155.6 75.01L156.59 77.21L157.49 79.46L158.3 81.74L159.03 84.07L159.66 86.44L160.21 88.84L160.65 91.27L161.01 93.74L161.26 96.24L161.42 98.77L161.47 101.32L161.42 103.87L161.26 106.39L161.01 108.89L160.65 111.36L160.21 113.8L159.66 116.2L159.03 118.56L158.3 120.89L157.49 123.18L156.59 125.42L155.6 127.63L154.54 129.78L153.39 131.89L152.17 133.95L150.86 135.96L149.49 137.91L148.04 139.8L146.53 141.64L144.94 143.42L143.29 145.14L141.57 146.79L139.79 148.37L137.96 149.89L136.06 151.34L134.11 152.71L132.1 154.01L130.04 155.24L127.94 156.39L125.78 157.45L123.58 158.44L121.33 159.34L119.04 160.15L116.72 160.88L114.35 161.51L111.95 162.06L109.51 162.5L107.04 162.86L104.55 163.11L102.02 163.27L99.47 163.32L96.92 163.27L94.39 163.11L91.89 162.86L89.42 162.5L86.99 162.06L84.59 161.51L82.22 160.88L79.89 160.15L77.6 159.34L75.36 158.44L73.16 157.45L71 156.39L68.89 155.24L66.83 154.01L64.83 152.71L62.87 151.34L60.98 149.89L59.14 148.37L57.36 146.79L55.65 145.14L54 143.42L52.41 141.64L50.89 139.8L49.45 137.91L48.07 135.96L46.77 133.95L45.54 131.89L44.4 129.78L43.33 127.63L42.35 125.42L41.45 123.18L40.63 120.89L39.91 118.56L39.27 116.2L38.73 113.8L38.28 111.36L37.93 108.89L37.67 106.39L37.52 103.87L37.47 101.32L37.52 98.77L37.67 96.24L37.93 93.74L38.28 91.27L38.73 88.84L39.27 86.44L39.91 84.07L40.63 81.74L41.45 79.46L42.35 77.21L43.33 75.01L44.4 72.85L45.54 70.74L46.77 68.68L48.07 66.68L49.45 64.73L50.89 62.83L52.41 60.99L54 59.21L55.65 57.5L57.36 55.85L59.14 54.26L60.98 52.74L62.87 51.3L64.83 49.92L66.83 48.62L68.89 47.4L71 46.25L73.16 45.18L75.36 44.2L77.6 43.3L79.89 42.48L82.22 41.76L84.59 41.12L86.99 40.58L89.42 40.13L91.89 39.78L94.39 39.52L96.92 39.37L99.47 39.32L102.02 39.37L104.55 39.52ZM94.84 45.06L92.57 45.29L90.32 45.61L88.11 46.02L85.92 46.51L83.76 47.09L81.64 47.75L79.56 48.49L77.52 49.31L75.51 50.21L73.55 51.18L71.63 52.22L69.75 53.34L67.93 54.52L66.15 55.77L64.42 57.09L62.75 58.47L61.13 59.92L59.57 61.42L58.07 62.98L56.62 64.6L55.24 66.27L53.92 68L52.67 69.78L51.49 71.6L50.37 73.48L49.33 75.4L48.36 77.36L47.46 79.37L46.64 81.41L45.9 83.49L45.24 85.61L44.66 87.77L44.17 89.95L43.76 92.17L43.44 94.42L43.21 96.69L43.07 98.99L43.02 101.32L43.07 103.64L43.21 105.94L43.44 108.21L43.76 110.46L44.17 112.68L44.66 114.87L45.24 117.02L45.9 119.14L46.64 121.22L47.46 123.27L48.36 125.27L49.33 127.24L50.37 129.16L51.49 131.03L52.67 132.86L53.92 134.63L55.24 136.36L56.62 138.03L58.07 139.65L59.57 141.21L61.13 142.72L62.75 144.16L64.42 145.54L66.15 146.86L67.93 148.11L69.75 149.3L71.63 150.41L73.55 151.45L75.51 152.43L77.52 153.32L79.56 154.14L81.64 154.88L83.76 155.54L85.92 156.12L88.11 156.62L90.32 157.02L92.57 157.35L94.84 157.58L97.14 157.72L99.47 157.76L101.79 157.72L104.09 157.58L106.36 157.35L108.61 157.02L110.83 156.62L113.02 156.12L115.17 155.54L117.29 154.88L119.37 154.14L121.42 153.32L123.42 152.43L125.39 151.46L127.31 150.41L129.18 149.3L131.01 148.11L132.78 146.86L134.51 145.54L136.18 144.16L137.8 142.72L139.36 141.21L140.87 139.65L142.31 138.03L143.69 136.36L145.01 134.63L146.26 132.86L147.45 131.03L148.56 129.16L149.61 127.24L150.58 125.27L151.47 123.27L152.29 121.22L153.03 119.14L153.69 117.02L154.27 114.87L154.77 112.68L155.17 110.46L155.5 108.21L155.73 105.94L155.87 103.64L155.92 101.32L155.87 98.99L155.73 96.69L155.5 94.42L155.18 92.17L154.77 89.95L154.27 87.77L153.69 85.61L153.03 83.49L152.29 81.41L151.47 79.37L150.58 77.36L149.61 75.4L148.56 73.48L147.45 71.6L146.26 69.78L145.01 68L143.69 66.27L142.31 64.6L140.87 62.98L139.36 61.42L137.8 59.92L136.18 58.47L134.51 57.09L132.78 55.77L131.01 54.52L129.18 53.34L127.31 52.22L125.39 51.18L123.42 50.21L121.42 49.31L119.37 48.49L117.29 47.75L115.17 47.09L113.02 46.51L110.83 46.02L108.61 45.61L106.36 45.29L104.09 45.06L101.79 44.92L99.47 44.87L97.14 44.92L94.84 45.06Z" id="c63FMdhdGy"></path><path d="M95.51 27.11L103.42 27.11L103.42 41.03L95.51 41.03L95.51 27.11Z" id="alj7FoQ76"></path><path d="M96.27 158.57L104.18 158.57L104.18 172.49L96.27 172.49L96.27 158.57Z" id="bYXMqFeOC"></path><path d="M38.49 96.77L38.59 104.68L24.68 104.85L24.57 96.95L38.49 96.77Z" id="abbZoyYls"></path><path d="M174.59 96.77L174.7 104.68L160.78 104.85L160.68 96.95L174.59 96.77Z" id="cT6buAIiC"></path><path d="M50.01 154.84L55.78 160.26L46.24 170.4L40.48 164.98L50.01 154.84Z" id="i6VPT92RW"></path><path d="M159.97 36.41L165.73 41.83L156.2 51.97L150.43 46.55L159.97 36.41Z" id="b5XmihtPS"></path><path d="M50.89 42.9L45.48 48.67L35.32 39.15L40.73 33.38L50.89 42.9Z" id="e6P6HR1e"></path><path d="M166 157.55L160.59 163.32L150.43 153.8L155.84 148.03L166 157.55Z" id="c620Xu1cfo"></path></defs><g><g><g><use xlink:href="#b1NoFbAJr5" opacity="1" fill="#ffffff" fill-opacity="1"></use><g><use xlink:href="#b1NoFbAJr5" opacity="1" fill-opacity="0" stroke="#000000" stroke-width="1" stroke-opacity="0"></use></g></g><g><use xlink:href="#aHrHsZzii" opacity="1" fill="#ffffff" fill-opacity="1"></use><g><use xlink:href="#aHrHsZzii" opacity="1" fill-opacity="0" stroke="#000000" stroke-width="1" stroke-opacity="0"></use></g></g><g><use xlink:href="#c63FMdhdGy" opacity="1" fill="#ffffff" fill-opacity="1"></use><g><use xlink:href="#c63FMdhdGy" opacity="1" fill-opacity="0" stroke="#000000" stroke-width="1" stroke-opacity="0"></use></g></g><g><use xlink:href="#alj7FoQ76" opacity="1" fill="#ffffff" fill-opacity="1"></use></g><g><use xlink:href="#bYXMqFeOC" opacity="1" fill="#ffffff" fill-opacity="1"></use></g><g><use xlink:href="#abbZoyYls" opacity="1" fill="#ffffff" fill-opacity="1"></use></g><g><use xlink:href="#cT6buAIiC" opacity="1" fill="#ffffff" fill-opacity="1"></use></g><g><use xlink:href="#i6VPT92RW" opacity="1" fill="#ffffff" fill-opacity="1"></use></g><g><use xlink:href="#b5XmihtPS" opacity="1" fill="#ffffff" fill-opacity="1"></use></g><g><use xlink:href="#e6P6HR1e" opacity="1" fill="#ffffff" fill-opacity="1"></use></g><g><use xlink:href="#c620Xu1cfo" opacity="1" fill="#ffffff" fill-opacity="1"></use></g></g></g></svg>