<?xml version="1.0" encoding="UTF-8" standalone="no"?>
<!DOCTYPE svg PUBLIC "-//W3C//DTD SVG 1.1//EN" "http://www.w3.org/Graphics/SVG/1.1/DTD/svg11.dtd">
<svg version="1.1" xmlns="http://www.w3.org/2000/svg" xmlns:xlink="http://www.w3.org/1999/xlink" preserveAspectRatio="xMidYMid meet" viewBox="0 0 4961 2300" width="4096" height="2300"><defs><path d="M0 -443.4L4961 -443.4L4961 2605.29L0 2605.29L0 -443.4Z" id="bpy5uLeeL"></path><path d="M5162.04 2077.19C5194.96 2121.24 5185.94 2183.63 5141.89 2216.55C4847.5 2436.57 4044.09 3037 3749.7 3257.01C3705.65 3289.93 3643.25 3280.91 3610.33 3236.86C3407.82 2965.88 2859.88 2232.7 2657.36 1961.72C2624.44 1917.68 2633.46 1855.28 2677.51 1822.36C2971.9 1602.35 3775.32 1001.92 4069.71 781.9C4113.76 748.98 4176.15 758.01 4209.07 802.06C4411.59 1073.03 4959.53 1806.21 5162.04 2077.19Z" id="bacTz5MSv"></path><path d="M2969.69 953.21C3003.44 977.5 3011.12 1024.54 2986.84 1058.29C2853.96 1243 2499.28 1736.02 2366.4 1920.74C2342.12 1954.49 2295.07 1962.17 2261.32 1937.88C2053.69 1788.52 1491.92 1384.38 1284.29 1235.01C1250.53 1210.73 1242.86 1163.69 1267.14 1129.93C1400.02 945.22 1754.69 452.2 1887.58 267.49C1911.86 233.74 1958.9 226.06 1992.65 250.34C2200.28 399.71 2762.06 803.85 2969.69 953.21Z" id="anx6ysNu0"></path><path d="M837.77 1540.68C874.01 1525.44 915.75 1542.47 930.99 1578.72C1016.06 1781.11 1243.7 2322.65 1328.78 2525.04C1344.01 2561.28 1326.98 2603.02 1290.73 2618.26C1067.75 2711.99 464.44 2965.59 241.46 3059.32C205.22 3074.56 163.48 3057.53 148.24 3021.28C63.17 2818.89 -164.47 2277.35 -249.55 2074.96C-264.78 2038.72 -247.75 1996.98 -211.5 1981.74C11.48 1888.01 614.79 1634.41 837.77 1540.68Z" id="b1Cfbo2Jd2"></path><path d="M3486.42 -695.66C3493.04 -722.98 3520.56 -739.76 3547.88 -733.13C3733.94 -688.03 4242.67 -564.71 4428.73 -519.61C4456.05 -512.99 4472.83 -485.47 4466.21 -458.15C4425.47 -290.09 4315.24 164.63 4274.51 332.7C4267.88 360.02 4240.37 376.79 4213.05 370.17C4026.98 325.07 3518.25 201.75 3332.19 156.65C3304.87 150.03 3288.09 122.51 3294.71 95.19C3335.45 -72.87 3445.68 -527.59 3486.42 -695.66Z" id="bjKJTJBfz"></path><path d="M438.44 -459.8C432.01 -487.17 448.98 -514.57 476.34 -521C732.71 -581.27 1452.27 -750.43 1708.64 -810.7C1736.01 -817.13 1763.4 -800.16 1769.84 -772.8C1809.41 -604.46 1916.49 -148.98 1956.06 19.36C1962.5 46.72 1945.53 74.12 1918.16 80.55C1661.79 140.82 942.24 309.98 685.87 370.25C658.5 376.69 631.1 359.72 624.67 332.35C585.1 164.01 478.02 -291.46 438.44 -459.8Z" id="f7Q7yYqY6"></path></defs><g><g><g><use xlink:href="#bpy5uLeeL" opacity="1" fill="#00152a" fill-opacity="1"></use></g><g><use xlink:href="#bacTz5MSv" opacity="1" fill="#071421" fill-opacity="0.5"></use></g><g><use xlink:href="#anx6ysNu0" opacity="1" fill="#061421" fill-opacity="0.22"></use></g><g><use xlink:href="#b1Cfbo2Jd2" opacity="1" fill="#071421" fill-opacity="0.49"></use></g><g><use xlink:href="#bjKJTJBfz" opacity="1" fill="#071421" fill-opacity="0.5"></use></g><g><use xlink:href="#f7Q7yYqY6" opacity="1" fill="#071421" fill-opacity="0.5"></use></g></g></g></svg>